<svg width="40" height="40" viewBox="0 0 40 40" fill="none" xmlns="http://www.w3.org/2000/svg">
<path d="M39.3548 18.064H36.129V13.5479C36.129 13.1916 36.4179 12.9027 36.7742 12.9027H37.4194V11.6124H36.7742C35.7052 11.6124 34.8387 12.479 34.8387 13.5479V18.064H32.9032V16.7737H33.5484V15.4834H30.9677V16.7737H31.6129V18.064H29.6774V10.9673C29.6753 9.18662 28.2323 7.74355 26.4516 7.74146H18.7097C16.929 7.74355 15.486 9.18662 15.4839 10.9673V16.7737H13.5484C13.1921 16.7737 12.9032 17.0626 12.9032 17.4189V23.6673C11.9668 24.1147 11.2119 24.8695 10.7645 25.806H8.65419L7.74194 24.8937V24.1376L11.4239 20.4556C11.5448 20.3347 11.6129 20.1706 11.6129 19.9995V18.7092H10.3226V19.7324L9.41032 20.6447H1.29032V18.7092H0V23.8705C0 24.2268 0.288871 24.5156 0.645161 24.5156H3.87097V26.4511C3.87097 26.6222 3.93903 26.7863 4.06 26.9072L6.64065 29.4879C6.76161 29.6089 6.92564 29.6769 7.09677 29.6769H10.7645C11.8281 31.927 14.5145 32.8889 16.7646 31.8252C17.7077 31.3794 18.467 30.6202 18.9129 29.6769H22.9174C24.6969 32.3422 28.3 33.0603 30.9652 31.2809C32.3896 30.3299 33.321 28.7984 33.5103 27.0963H39.3548C39.7111 27.0963 40 26.8074 40 26.4511V18.7092C40 18.3529 39.7111 18.064 39.3548 18.064ZM1.29032 23.2253V21.935H8.12L6.82968 23.2253H1.29032ZM10.3742 28.3866H7.36387L5.16129 26.184V24.5156H6.45161V25.1608C6.45161 25.3319 6.51968 25.496 6.64065 25.6169L7.93097 26.9072C8.05194 27.0282 8.21597 27.0963 8.3871 27.0963H10.3742C10.3054 27.5236 10.3054 27.9593 10.3742 28.3866ZM16.7742 10.9673C16.7742 9.89831 17.6407 9.03178 18.7097 9.03178H26.4516C27.5206 9.03178 28.3871 9.89831 28.3871 10.9673V15.4834H27.0968V11.6124C27.0968 10.8998 26.5191 10.3221 25.8064 10.3221H19.3548C18.6422 10.3221 18.0645 10.8998 18.0645 11.6124V15.4834H16.7742V10.9673ZM25.8064 11.6124V15.4834H19.3548V11.6124H25.8064ZM16.7742 16.7737H28.3871V18.064H16.7742V16.7737ZM14.1935 18.064H15.4839V19.3544H14.1935V18.064ZM14.1935 20.6447H15.4839V23.2769C15.0565 23.2081 14.6209 23.2081 14.1935 23.2769V20.6447ZM14.8387 30.9672C13.0572 30.9672 11.6129 29.523 11.6129 27.7414C11.6129 25.9599 13.0572 24.5156 14.8387 24.5156C16.6202 24.5156 18.0645 25.9599 18.0645 27.7414C18.0624 29.5221 16.6194 30.9651 14.8387 30.9672ZM19.3032 28.3866C19.372 27.9593 19.372 27.5236 19.3032 27.0963H21.9735C22.0239 27.5365 22.1248 27.9695 22.2742 28.3866H19.3032ZM27.7419 30.9672C25.2477 30.9672 23.2258 28.9453 23.2258 26.4511C23.2258 23.9569 25.2477 21.935 27.7419 21.935C30.2361 21.935 32.2581 23.9569 32.2581 26.4511C32.2552 28.9441 30.2349 30.9644 27.7419 30.9672ZM38.7097 25.806H33.5103C33.1437 22.6202 30.264 20.3348 27.0781 20.7014C24.3971 21.0099 22.282 23.1249 21.9735 25.806H18.9129C18.4655 24.8695 17.7106 24.1147 16.7742 23.6673V19.3544H38.7097V25.806Z" fill="url(#paint0_linear_27:198)"/>
<path d="M37.4193 20.6447H34.8387V21.935H37.4193V20.6447Z" fill="url(#paint1_linear_27:198)"/>
<path d="M37.4193 23.2253H34.8387V24.5156H37.4193V23.2253Z" fill="url(#paint2_linear_27:198)"/>
<path d="M14.8387 25.806C13.7697 25.806 12.9032 26.6725 12.9032 27.7415C12.9032 28.8104 13.7697 29.6769 14.8387 29.6769C15.9076 29.6769 16.7742 28.8104 16.7742 27.7415C16.7742 26.6725 15.9076 25.806 14.8387 25.806ZM14.8387 28.3866C14.4824 28.3866 14.1935 28.0977 14.1935 27.7415C14.1935 27.3852 14.4824 27.0963 14.8387 27.0963C15.195 27.0963 15.4838 27.3852 15.4838 27.7415C15.4838 28.0977 15.195 28.3866 14.8387 28.3866Z" fill="url(#paint3_linear_27:198)"/>
<path d="M27.7419 23.2253C25.9604 23.2253 24.5161 24.6696 24.5161 26.4511C24.5161 28.2327 25.9604 29.6769 27.7419 29.6769C29.5234 29.6769 30.9677 28.2327 30.9677 26.4511C30.9656 24.6705 29.5226 23.2274 27.7419 23.2253ZM27.7419 28.3866C26.673 28.3866 25.8064 27.5201 25.8064 26.4511C25.8064 25.3822 26.673 24.5156 27.7419 24.5156C28.8109 24.5156 29.6774 25.3822 29.6774 26.4511C29.6774 27.5201 28.8109 28.3866 27.7419 28.3866Z" fill="url(#paint4_linear_27:198)"/>
<defs>
<linearGradient id="paint0_linear_27:198" x1="-1.52116e-07" y1="32.2585" x2="21.8469" y2="-3.38506" gradientUnits="userSpaceOnUse">
<stop stop-color="#1D4FCF"/>
<stop offset="1" stop-color="#0586E8"/>
</linearGradient>
<linearGradient id="paint1_linear_27:198" x1="34.8387" y1="21.935" x2="35.8709" y2="19.8705" gradientUnits="userSpaceOnUse">
<stop stop-color="#1D4FCF"/>
<stop offset="1" stop-color="#0586E8"/>
</linearGradient>
<linearGradient id="paint2_linear_27:198" x1="34.8387" y1="24.5156" x2="35.8709" y2="22.4511" gradientUnits="userSpaceOnUse">
<stop stop-color="#1D4FCF"/>
<stop offset="1" stop-color="#0586E8"/>
</linearGradient>
<linearGradient id="paint3_linear_27:198" x1="12.9032" y1="29.6769" x2="16.7742" y2="25.806" gradientUnits="userSpaceOnUse">
<stop stop-color="#1D4FCF"/>
<stop offset="1" stop-color="#0586E8"/>
</linearGradient>
<linearGradient id="paint4_linear_27:198" x1="24.5161" y1="29.6769" x2="30.9677" y2="23.2253" gradientUnits="userSpaceOnUse">
<stop stop-color="#1D4FCF"/>
<stop offset="1" stop-color="#0586E8"/>
</linearGradient>
</defs>
</svg>
