<svg width="40" height="40" viewBox="0 0 40 40" fill="none" xmlns="http://www.w3.org/2000/svg">
<circle cx="20" cy="20" r="19.5556" fill="url(#paint0_linear_620_4)"/>
<g clip-path="url(#clip0_620_4)">
<path d="M25.2237 21.9462C24.4618 21.9462 23.7137 21.827 23.0048 21.5927C22.6575 21.4743 22.2304 21.583 22.0184 21.8007L20.6192 22.857C18.9964 21.9908 17.9969 20.9915 17.1425 19.381L18.1677 18.0182C18.434 17.7522 18.5296 17.3636 18.4151 16.999C18.1798 16.2864 18.0603 15.5387 18.0603 14.7764C18.0603 14.2258 17.6124 13.7778 17.0618 13.7778H14.7764C14.2258 13.7778 13.7778 14.2258 13.7778 14.7764C13.7778 21.0877 18.9124 26.2223 25.2237 26.2223C25.7743 26.2223 26.2223 25.7743 26.2223 25.2237V22.9447C26.2223 22.3942 25.7743 21.9462 25.2237 21.9462Z" fill="white"/>
</g>
<defs>
<linearGradient id="paint0_linear_620_4" x1="0.444458" y1="39.5556" x2="39.5556" y2="0.444458" gradientUnits="userSpaceOnUse">
<stop stop-color="#1D4FCF"/>
<stop offset="1" stop-color="#0586E8"/>
</linearGradient>
<clipPath id="clip0_620_4">
<rect width="12.4444" height="12.4444" fill="white" transform="translate(13.7778 13.7778)"/>
</clipPath>
</defs>
</svg>
