<svg width="22" height="22" viewBox="0 0 22 22" xmlns="http://www.w3.org/2000/svg">
<g clip-path="url(#clip0_27:227)">
<path d="M18.2554 11.9423C17.8998 11.4931 18.0015 11.2933 18.2554 10.8918C18.26 10.8872 21.1961 6.83006 21.4986 5.45415L21.5004 5.45323C21.6508 4.95181 21.5004 4.58331 20.7735 4.58331H18.3682C17.7558 4.58331 17.4735 4.89956 17.3223 5.2534C17.3223 5.2534 16.0976 8.1849 14.3651 10.0851C13.8059 10.6342 13.5474 10.8102 13.2422 10.8102C13.0918 10.8102 12.8581 10.6342 12.8581 10.1328V5.45323C12.8581 4.8519 12.6867 4.58331 12.1798 4.58331H8.39758C8.0135 4.58331 7.78525 4.86381 7.78525 5.12506C7.78525 5.69523 8.6515 5.82631 8.74133 7.43048V10.9111C8.74133 11.6737 8.60292 11.814 8.29583 11.814C7.47817 11.814 5.49358 8.87056 4.3175 5.50181C4.08008 4.84823 3.84817 4.58423 3.23125 4.58423H0.825C0.138417 4.58423 0 4.90048 0 5.25431C0 5.87948 0.817666 8.9879 3.80233 13.0946C5.7915 15.8977 8.59283 17.4166 11.1412 17.4166C12.6729 17.4166 12.8599 17.0793 12.8599 16.4991C12.8599 13.8206 12.7215 13.5676 13.4888 13.5676C13.8444 13.5676 14.4568 13.7436 15.8868 15.0956C17.5212 16.6989 17.7898 17.4166 18.7046 17.4166H21.1099C21.7956 17.4166 22.143 17.0793 21.9432 16.4138C21.4858 15.0141 18.3948 12.1348 18.2554 11.9423V11.9423Z"/>
</g>
<defs>
<clipPath id="clip0_27:227">
<rect width="22" height="22" fill="white"/>
</clipPath>
</defs>
</svg>
